# xmcd
#
# Track frame offsets: 
#        187
#        25657
#        46417
#        73787
#        96002
#        111947
#        142290
#        154885
#        173955
#        187985
#
# Disc length: 2987 seconds
#
# Revision: 2
# Processed by: cddbd v1.5.2PL0 Copyright (c) Steve Scherf et al.
# Submitted via: ExactAudioCopyFreeDBPlugin 1.0
#
DISCID=8b0ba90a
DTITLE=Chick Willis - I Got A Big Fat Woman
DYEAR=1994
DGENRE=Blues
TTITLE0=I Got A Big Fat Woman
TTITLE1=I Cain't Work and Watch You
TTITLE2=Cumming Prison Farm
TTITLE3=Today I Started Loving You Again
TTITLE4=She Likes To Live High On The Hog
TTITLE5=I'm Your Hoochie Coochie Man
TTITLE6=You Lost What You Had
TTITLE7=Rock Me Baby
TTITLE8=Look On Yonder Wall
TTITLE9=Tin Pan Alley
EXTD=
EXTT0=
EXTT1=
EXTT2=
EXTT3=
EXTT4=
EXTT5=
EXTT6=
EXTT7=
EXTT8=
EXTT9=
PLAYORDER=
